<svg width="128" height="128" viewBox="0 0 128 128" fill="none" xmlns="http://www.w3.org/2000/svg">
<rect width="128" height="128" rx="10" fill="white"/>
<path d="M37.56 44.408L40.44 48.12L21.304 63.992V64.632L40.696 80.76L37.752 84.408L16.504 66.552V62.136L37.56 44.408ZM62.0595 79.672C65.1955 79.672 68.5235 78.2 70.9555 76.28C70.8915 74.232 70.8275 71.928 70.8275 68.856C59.3715 67.64 55.5955 70.136 55.5955 74.424C55.5955 77.752 58.1555 79.672 62.0595 79.672ZM71.6595 83.192C71.5955 82.552 71.3395 80.568 71.2115 79.16C68.6515 81.528 65.0035 83.768 60.0755 83.768C54.3795 83.768 50.4755 80.696 50.4755 75.64C50.4755 69.176 56.8755 64.312 70.7635 65.144C70.3155 57.912 66.3475 56.056 52.3315 55.544L52.9075 51.064C71.0195 51.576 75.8835 55.352 75.8835 67.448C75.8835 73.976 76.1395 78.392 76.3955 82.872L71.6595 83.192ZM89.823 84.408L86.943 80.76L106.399 64.632V63.992L87.199 48.184L90.207 44.472L111.135 62.072V66.488L89.823 84.408Z" fill="black"/>
</svg>
