<?xml version="1.0" standalone="no"?>
<!DOCTYPE svg PUBLIC "-//W3C//DTD SVG 20010904//EN"
 "http://www.w3.org/TR/2001/REC-SVG-20010904/DTD/svg10.dtd">
<svg version="1.0" xmlns="http://www.w3.org/2000/svg"
 width="512.000000pt" height="512.000000pt" viewBox="0 0 512.000000 512.000000"
 preserveAspectRatio="xMidYMid meet">
<metadata>
Created by potrace 1.14, written by Peter Selinger 2001-2017
</metadata>
<g transform="translate(0.000000,512.000000) scale(0.100000,-0.100000)"
fill="#000000" stroke="none">
<path d="M207 4799 c-59 -16 -74 -44 -82 -152 -8 -116 -15 -202 -20 -279 -3
-40 -8 -104 -10 -143 -3 -38 -7 -106 -10 -150 -3 -44 -7 -105 -10 -135 -2 -30
-7 -98 -10 -150 -3 -52 -8 -120 -10 -150 -3 -30 -7 -91 -10 -135 -11 -174 -17
-260 -32 -440 -10 -122 -10 -404 -1 -500 32 -315 133 -598 343 -960 32 -55 65
-111 72 -125 14 -26 141 -219 208 -317 39 -57 164 -223 174 -233 3 -3 24 -27
45 -55 57 -73 216 -227 288 -278 187 -133 402 -223 628 -264 83 -14 179 -17
760 -17 366 0 699 3 740 7 212 20 508 130 674 250 197 141 372 339 603 683
248 370 407 678 488 946 59 197 80 358 80 608 0 146 -4 215 -20 405 -3 28 -7
88 -10 135 -2 47 -7 110 -9 140 -5 55 -12 151 -21 305 -3 44 -7 107 -10 140
-3 33 -7 96 -10 140 -3 44 -7 103 -9 130 -3 28 -8 97 -11 155 -3 58 -8 127
-11 154 -2 27 -7 84 -9 128 -6 93 -24 134 -68 153 -48 20 -116 1 -135 -38 -6
-12 -63 -177 -125 -367 -125 -377 -218 -619 -307 -806 -56 -115 -130 -244
-157 -272 -7 -7 -13 -17 -13 -21 0 -20 -100 -109 -129 -114 -32 -7 -99 14
-111 32 -13 22 -244 167 -349 219 -224 113 -418 177 -646 217 -140 25 -202 29
-390 30 -236 0 -331 -11 -545 -61 -266 -64 -512 -173 -748 -333 -173 -116
-168 -114 -207 -107 -70 13 -187 169 -300 400 -58 119 -88 191 -170 401 -15
39 -80 228 -144 420 -64 193 -123 360 -131 371 -13 19 -43 34 -75 39 -5 1 -23
-2 -38 -6z m2358 -1723 c110 0 238 2 285 5 135 8 290 -19 400 -69 93 -42 186
-133 209 -205 32 -95 8 -214 -58 -288 -50 -58 -135 -99 -204 -101 -66 -2 -120
16 -337 112 -256 113 -341 119 -524 35 -224 -103 -267 -120 -341 -140 -127
-33 -270 43 -327 173 -27 63 -27 163 -1 223 60 135 236 236 445 256 35 3 64 6
65 7 2 2 44 0 95 -3 51 -3 183 -5 293 -5z"/>
</g>
</svg>
