<svg width="190" height="81" viewBox="0 0 190 81" fill="none" xmlns="http://www.w3.org/2000/svg">
<path d="M42.12 0.815994L0.00800037 36.272V45.104L42.504 80.816L48.392 73.52L9.608 41.264V39.984L47.88 8.24L42.12 0.815994ZM91.119 71.344C83.311 71.344 78.191 67.504 78.191 60.848C78.191 52.272 85.743 47.28 108.655 49.712C108.655 55.856 108.783 60.464 108.911 64.56C104.047 68.4 97.391 71.344 91.119 71.344ZM110.319 78.384L119.791 77.744C119.279 68.784 118.767 59.952 118.767 46.896C118.767 22.704 109.039 15.152 72.815 14.128L71.663 23.088C99.695 24.112 107.631 27.824 108.527 42.288C80.751 40.624 67.951 50.352 67.951 63.28C67.951 73.392 75.759 79.536 87.151 79.536C97.007 79.536 104.303 75.056 109.423 70.32C109.679 73.136 110.191 77.104 110.319 78.384ZM146.646 80.816L189.27 44.976V36.144L147.414 0.943993L141.398 8.368L179.798 39.984V41.264L140.886 73.52L146.646 80.816Z" fill="white"/>
</svg>
